<svg xmlns="http://www.w3.org/2000/svg" xmlns:svg="http://www.w3.org/2000/svg" id="svg11300" width="24" height="24" display="inline" enable-background="new" version="1.0"><metadata id="metadata4"/><g id="layer1" display="inline" transform="translate(0,-276)"><path id="rect3003" fill="#525252" fill-opacity="1" stroke="none" d="m 2,300 c -1.108,0 -2,-0.892 -2,-2 l 0,-22 24,0 0,22 c 0,1.108 -0.892,2 -2,2 z" opacity="1"/><path id="rect4146" fill="#000" fill-opacity="1" stroke="none" d="m 2,300 c -1.108,0 -2,-0.892 -2,-2 l 0,-22 1,0 0,22 c 0,0.554 0.446,1 1,1 l 20,0 c 0.554,0 1,-0.446 1,-1 l 0,-22 1,0 0,22 c 0,1.108 -0.892,2 -2,2 z" opacity=".3"/></g></svg>