<svg xmlns="http://www.w3.org/2000/svg" xmlns:svg="http://www.w3.org/2000/svg" id="svg11300" width="24" height="24" display="inline" enable-background="new" version="1.0"><metadata id="metadata4"/><g id="layer1" display="inline" transform="translate(0,-276)"><rect id="rect3003" width="24" height="24" x="0" y="276" fill="#525252" fill-opacity="1" stroke="none" opacity="1" rx="2" ry="2"/><path id="rect4146" fill="#000" fill-opacity="1" stroke="none" d="M 2 0 C 0.892 0 -5.1014965e-18 0.892 0 2 L 0 22 C 0 23.108 0.892 24 2 24 L 22 24 C 23.108 24 24 23.108 24 22 L 24 2 C 24 0.892 23.108 -5.1014965e-18 22 0 L 2 0 z M 2 1 L 22 1 C 22.554 1 23 1.446 23 2 L 23 22 C 23 22.554 22.554 23 22 23 L 2 23 C 1.446 23 1 22.554 1 22 L 1 2 C 1 1.446 1.446 1 2 1 z" opacity=".3" transform="translate(0,276)"/></g></svg>