<svg xmlns="http://www.w3.org/2000/svg" xmlns:svg="http://www.w3.org/2000/svg" id="svg11300" width="24" height="24" display="inline" enable-background="new" version="1.0"><metadata id="metadata4"/><g id="layer1" display="inline" transform="translate(0,-276)"><path id="rect3003" fill="#525252" fill-opacity="1" stroke="none" d="M 2,0 C 0.892,0 0,0.892 0,2 l 0,20 c 0,1.108 0.892,2 2,2 l 22,0 0,-24 z" opacity="1" transform="translate(0,276)"/><path id="rect4146" fill="#000" fill-opacity="1" stroke="none" d="M 2,0 C 0.892,0 0,0.892 0,2 l 0,20 c 0,1.108 0.892,2 2,2 7.3333333,0 14.666667,0 22,0 L 24,0 Z M 2,1 23,1 23,23 2,23 C 1.446,23 1,22.554 1,22 L 1,2 C 1,1.446 1.446,1 2,1 Z" opacity=".3" transform="translate(0,276)"/></g></svg>