<svg xmlns="http://www.w3.org/2000/svg" xmlns:svg="http://www.w3.org/2000/svg" id="svg11300" width="24" height="24" display="inline" enable-background="new" version="1.0"><metadata id="metadata4"/><g id="layer1" display="inline" transform="translate(0,-276)"><rect id="rect3003" width="22" height="22" x="1" y="277" fill="#525252" fill-opacity="1" stroke="none" opacity="1" rx="2" ry="2"/><path id="rect4146" fill="#000" fill-opacity="1" stroke="none" d="m 3,277 c -1.108,0 -2,0.892 -2,2 l 0,18 c 0,1.108 0.892,2 2,2 l 18,0 c 1.108,0 2,-0.892 2,-2 l 0,-18 c 0,-1.108 -0.892,-2 -2,-2 z m 0,1 18,0 c 0.554,0 1,0.446 1,1 l 0,18 c 0,0.554 -0.446,1 -1,1 l -18,0 c -0.554,0 -1,-0.446 -1,-1 l 0,-18 c 0,-0.554 0.446,-1 1,-1 z" opacity=".28"/><path id="rect4172" fill="#000" fill-opacity="1" stroke="none" d="M 1 21 L 1 22 C 1 23.108 1.892 24 3 24 L 21 24 C 22.108 24 23 23.108 23 22 L 23 21 C 23 22.108 22.108 23 21 23 L 3 23 C 1.892 23 1 22.108 1 21 z" opacity=".08" transform="translate(0,276)"/></g></svg>