<svg xmlns="http://www.w3.org/2000/svg" xmlns:svg="http://www.w3.org/2000/svg" xmlns:xlink="http://www.w3.org/1999/xlink" id="svg11300" width="24" height="24" display="inline" enable-background="new" version="1.0"><defs id="defs3"><linearGradient id="linearGradient3991"><stop id="stop3993" offset="0" stop-color="#000" stop-opacity="1"/><stop id="stop3995" offset="1" stop-color="#373737" stop-opacity="0"/></linearGradient><linearGradient id="linearGradient3955"><stop id="stop3957" offset="0" stop-color="#fff" stop-opacity="0"/><stop id="stop3959" offset="1" stop-color="#fff" stop-opacity="1"/></linearGradient><linearGradient id="linearGradient3773"><stop id="stop3775" offset="0" stop-color="#7ec83c" stop-opacity="1"/><stop id="stop3777" offset="1" stop-color="#93d15b" stop-opacity="1"/></linearGradient><linearGradient id="linearGradient3948" x1="25" x2="25" y1="23" y2="0" gradientTransform="matrix(0.91304348,0,0,0.91304348,-22.956522,277)" gradientUnits="userSpaceOnUse" xlink:href="#linearGradient3773"/><linearGradient id="linearGradient3950" x1="25" x2="25" y1="23" y2="0" gradientTransform="matrix(-1,0,0,1,24,0)" gradientUnits="userSpaceOnUse" xlink:href="#linearGradient3773"/><linearGradient id="linearGradient4254" x1="25" x2="25" y1="23" y2="0" gradientTransform="matrix(0.91304348,0,0,0.91304348,-22.956522,277)" gradientUnits="userSpaceOnUse" xlink:href="#linearGradient3773"/><linearGradient id="linearGradient4256" x1="25" x2="25" y1="23" y2="0" gradientTransform="matrix(-1,0,0,1,24,0)" gradientUnits="userSpaceOnUse" xlink:href="#linearGradient3773"/><linearGradient id="linearGradient4321" x1="25" x2="25" y1="23" y2="0" gradientTransform="matrix(0.91304348,0,0,0.91304348,-22.956522,277)" gradientUnits="userSpaceOnUse" xlink:href="#linearGradient3773"/><linearGradient id="linearGradient4323" x1="25" x2="25" y1="23" y2="0" gradientTransform="matrix(-1,0,0,1,24,0)" gradientUnits="userSpaceOnUse" xlink:href="#linearGradient3773"/></defs><metadata id="metadata4"/><g id="layer1" display="inline" transform="translate(0,-276)"><path id="rect2995" fill="#f0544c" fill-opacity="1" stroke="none" d="M 3,1 C 1.892,1 1,1.892 1,3 l 0,18 c 0,1.108 0.892,2 2,2 l 21,0 0,-22 z" opacity="1" transform="translate(0,276)"/><path id="rect4154" fill="#000" fill-opacity="1" stroke="none" d="M 3,1 C 1.892,1 1,1.892 1,3 l 0,18 c 0,1.108 0.892,2 2,2 l 21,0 0,-1 -21,0 C 2.446,22 2,21.554 2,21 L 2,3 C 2,2.446 2.446,2 3,2 l 21,0 0,-1 z" opacity=".23" transform="translate(0,276)"/><path id="rect4227" fill="#000" fill-opacity="1" stroke="none" d="M 3,2 C 2.446,2 2,2.446 2,3 l 0,18 c 0,0.554 0.446,1 1,1 l 21,0 0,-1 -20,0 C 3.446,21 3,20.554 3,20 L 3,4 C 3,3.446 3.446,3 4,3 l 20,0 0,-1 z" opacity=".08" transform="translate(0,276)"/><path id="rect4260" fill="#000" fill-opacity="1" stroke="none" d="m 3,277 c -1.108,0 -2,0.892 -2,2 l 0,18 c 0,1.108 0.892,2 2,2 l 21,0 0,-22 z" opacity=".1"/><rect id="rect4388" width="1" height="20" x="23" y="278" fill="#000" fill-opacity="1" stroke="none" stroke-dasharray="none" stroke-linecap="round" stroke-linejoin="round" stroke-miterlimit="4" stroke-opacity="1" stroke-width="2" opacity=".1"/></g></svg>