<svg xmlns="http://www.w3.org/2000/svg" xmlns:svg="http://www.w3.org/2000/svg" xmlns:xlink="http://www.w3.org/1999/xlink" id="svg11300" width="24" height="24" display="inline" enable-background="new" version="1.0"><defs id="defs3"><linearGradient id="linearGradient3991"><stop id="stop3993" offset="0" stop-color="#000" stop-opacity="1"/><stop id="stop3995" offset="1" stop-color="#373737" stop-opacity="0"/></linearGradient><linearGradient id="linearGradient3955"><stop id="stop3957" offset="0" stop-color="#fff" stop-opacity="0"/><stop id="stop3959" offset="1" stop-color="#fff" stop-opacity="1"/></linearGradient><linearGradient id="linearGradient3773"><stop id="stop3775" offset="0" stop-color="#7ec83c" stop-opacity="1"/><stop id="stop3777" offset="1" stop-color="#93d15b" stop-opacity="1"/></linearGradient><linearGradient id="linearGradient3948" x1="25" x2="25" y1="23" y2="0" gradientTransform="matrix(0.91304348,0,0,0.91304348,-22.956522,277)" gradientUnits="userSpaceOnUse" xlink:href="#linearGradient3773"/><linearGradient id="linearGradient3950" x1="25" x2="25" y1="23" y2="0" gradientTransform="matrix(-1,0,0,1,24,0)" gradientUnits="userSpaceOnUse" xlink:href="#linearGradient3773"/></defs><metadata id="metadata4"/><g id="layer1" display="inline" transform="translate(0,-276)"><path id="rect3003" fill="#333" fill-opacity="1" stroke="none" d="m 0,277 0,22 21,0 c 1.108,0 2,-0.892 2,-2 l 0,-18 c 0,-1.108 -0.892,-2 -2,-2 z" opacity="1"/><path id="rect4146" fill="#000" fill-opacity="1" stroke="none" d="m 0,1 c 0,7.3333333 0,14.666667 0,22 l 21,0 c 1.108,0 2,-0.892 2,-2 L 23,3 C 23,1.892 22.108,1 21,1 Z m 1,1 20,0 c 0.554,0 1,0.446 1,1 l 0,18 c 0,0.554 -0.446,1 -1,1 L 1,22 Z" opacity=".22" transform="translate(0,276)"/><path id="rect4227" fill="#000" fill-opacity="1" stroke="none" d="m 1,2 c 0,6.6666667 0,13.333333 0,20 l 1,0 19,0 c 0.554,0 1,-0.446 1,-1 L 22,3 C 22,2.446 21.554,2 21,2 Z m 1,1 18,0 c 0.554,0 1,0.446 1,1 l 0,16 c 0,0.554 -0.446,1 -1,1 L 2,21 Z" opacity=".07" transform="translate(0,276)"/></g></svg>