<svg xmlns="http://www.w3.org/2000/svg" xmlns:svg="http://www.w3.org/2000/svg" id="svg11300" width="24" height="24" display="inline" enable-background="new" version="1.0"><defs id="defs3"><linearGradient id="linearGradient3991"><stop id="stop3993" offset="0" stop-color="#000" stop-opacity="1"/><stop id="stop3995" offset="1" stop-color="#373737" stop-opacity="0"/></linearGradient></defs><metadata id="metadata4"/><g id="layer1" display="inline" transform="translate(0,-276)"><path id="rect3003" fill="#525252" fill-opacity="1" stroke="none" d="m 3,277 c -1.108,0 -2,0.892 -2,2 l 0,18 c 0,1.108 0.892,2 2,2 l 21,0 0,-22 z" opacity="1"/><path id="rect4146" fill="#000" fill-opacity="1" stroke="none" d="m 3,277 c -1.108,0 -2,0.892 -2,2 l 0,18 c 0,1.108 0.892,2 2,2 l 21,0 0,-1 -21,0 c -0.554,0 -1,-0.446 -1,-1 l 0,-18 c 0,-0.554 0.446,-1 1,-1 l 21,0 0,-1 z" opacity=".28"/><path id="rect4172" fill="#000" fill-opacity="1" stroke="none" d="m 1,297 0,1 c 0,1.108 0.892,2 2,2 l 21,0 0,-1 -21,0 c -1.108,0 -2,-0.892 -2,-2 z" opacity=".08"/></g></svg>