<svg xmlns="http://www.w3.org/2000/svg" xmlns:svg="http://www.w3.org/2000/svg" id="svg11300" width="24" height="24" display="inline" enable-background="new" version="1.0"><defs id="defs3"><linearGradient id="linearGradient3991"><stop id="stop3993" offset="0" stop-color="#000" stop-opacity="1"/><stop id="stop3995" offset="1" stop-color="#373737" stop-opacity="0"/></linearGradient></defs><metadata id="metadata4"/><g id="layer1" display="inline" transform="translate(0,-276)"><path id="rect3003" fill="#666" fill-opacity="1" stroke="none" d="m 21,277 c 1.108,0 2,0.892 2,2 l 0,18 c 0,1.108 -0.892,2 -2,2 l -21,0 0,-22 z" opacity="1"/><path id="rect4146" fill="#000" fill-opacity="1" stroke="none" d="M 0 1 L 0 2 L 0 22 L 0 23 L 21 23 C 22.108 23 23 22.108 23 21 L 23 3 C 23 1.892 22.108 1 21 1 L 0 1 z M 1 2 L 21 2 C 21.554 2 22 2.446 22 3 L 22 21 C 22 21.554 21.554 22 21 22 L 1 22 L 1 2 z" opacity=".35" transform="translate(0,276)"/><path id="rect4172" fill="#000" fill-opacity="1" stroke="none" d="m 23,297 0,1 c 0,1.108 -0.892,2 -2,2 l -21,0 0,-1 21,0 c 1.108,0 2,-0.892 2,-2 z" opacity=".08"/></g></svg>