<svg xmlns="http://www.w3.org/2000/svg" xmlns:svg="http://www.w3.org/2000/svg" id="svg11300" width="16" height="16" display="inline" enable-background="new" version="1.0"><metadata id="metadata4"/><g id="layer1" display="inline" transform="translate(0,-284)"><path id="path5857" fill="#f0544c" fill-opacity="1" d="m 3,295 0,2 1,0 0,-2 -1,0 z m 9,0 0,2 1,0 0,-2 -1,0 z m -9,3 0,2 1,0 0,-2 -1,0 z m 9,0 0,2 1,0 0,-2 -1,0 z"/><path id="rect3263" fill="#f0544c" fill-opacity="1" d="m 0,284 7,0 0,4 -7,0 z m 0,5 7,0 0,4 -7,0 z m 9,-5 7,0 0,4 -7,0 z m 0,5 7,0 0,4 -7,0 z" opacity=".5"/></g></svg>