<svg xmlns="http://www.w3.org/2000/svg" xmlns:svg="http://www.w3.org/2000/svg" xmlns:xlink="http://www.w3.org/1999/xlink" id="svg11300" width="24" height="24" display="inline" enable-background="new" version="1.0"><defs id="defs3"><linearGradient id="linearGradient3955"><stop id="stop3957" offset="0" stop-color="#fff" stop-opacity="0"/><stop id="stop3959" offset="1" stop-color="#fff" stop-opacity="1"/></linearGradient><linearGradient id="linearGradient3773"><stop id="stop3775" offset="0" stop-color="#7ec83c" stop-opacity="1"/><stop id="stop3777" offset="1" stop-color="#93d15b" stop-opacity="1"/></linearGradient><linearGradient id="linearGradient3948" x1="25" x2="25" y1="23" y2="0" gradientTransform="matrix(0.91304348,0,0,0.91304348,-22.956522,277)" gradientUnits="userSpaceOnUse" xlink:href="#linearGradient3773"/><linearGradient id="linearGradient3950" x1="25" x2="25" y1="23" y2="0" gradientTransform="matrix(-1,0,0,1,24,0)" gradientUnits="userSpaceOnUse" xlink:href="#linearGradient3773"/></defs><metadata id="metadata4"/><g id="layer1" display="inline" transform="translate(0,-276)"><rect id="rect3015-6" width="3" height="22" x="20" y="277" fill="#f0544c" fill-opacity="1" stroke="none" rx="1" ry="1"/><path id="rect4153" fill="#000" fill-opacity="1" stroke="none" d="M 21 1 C 20.446 1 20 1.446 20 2 L 20 22 C 20 22.554 20.446 23 21 23 L 22 23 C 22.554 23 23 22.554 23 22 L 23 2 C 23 1.446 22.554 1 22 1 L 21 1 z M 21.5 2 C 21.777 2 22 2.446 22 3 L 22 21 C 22 21.554 21.777 22 21.5 22 C 21.223 22 21 21.554 21 21 L 21 3 C 21 2.446 21.223 2 21.5 2 z" opacity=".1" transform="translate(0,276)"/></g></svg>