<svg xmlns="http://www.w3.org/2000/svg" xmlns:svg="http://www.w3.org/2000/svg" id="svg11300" width="24" height="24" display="inline" enable-background="new" version="1.0"><metadata id="metadata4"/><g id="layer1" display="inline" transform="translate(0,-276)"><rect id="rect3003-0" width="22" height="22" x="1" y="277" fill="#333" fill-opacity="1" stroke="none" opacity="1" rx="2" ry="2"/><path id="rect4146-9" fill="#000" fill-opacity="1" stroke="none" d="m 3,277 c -1.108,0 -2,0.892 -2,2 l 0,18 c 0,1.108 0.892,2 2,2 l 18,0 c 1.108,0 2,-0.892 2,-2 l 0,-18 c 0,-1.108 -0.892,-2 -2,-2 z m 0,1 18,0 c 0.554,0 1,0.446 1,1 l 0,18 c 0,0.554 -0.446,1 -1,1 l -18,0 c -0.554,0 -1,-0.446 -1,-1 l 0,-18 c 0,-0.554 0.446,-1 1,-1 z" opacity=".22"/></g></svg>