<svg xmlns="http://www.w3.org/2000/svg" xmlns:svg="http://www.w3.org/2000/svg" id="svg11300" width="24" height="24" display="inline" enable-background="new" version="1.0"><metadata id="metadata4"/><g id="layer1" display="inline" transform="translate(0,-276)"><rect id="rect3003-6" width="24" height="24" x="0" y="276" fill="#333" fill-opacity="1" stroke="none" opacity="1" rx="2" ry="2"/><path id="rect4146" fill="#000" fill-opacity="1" stroke="none" d="m 2,276 c -1.108,0 -2,0.892 -2,2 l 0,20 c 0,1.108 0.892,2 2,2 l 20,0 c 1.108,0 2,-0.892 2,-2 l 0,-20 c 0,-1.108 -0.892,-2 -2,-2 l -20,0 z m 0,1 20,0 c 0.554,0 1,0.446 1,1 l 0,20 c 0,0.554 -0.446,1 -1,1 l -20,0 c -0.554,0 -1,-0.446 -1,-1 l 0,-20 c 0,-0.554 0.446,-1 1,-1 z" opacity=".22"/><path id="rect4172" fill="#000" fill-opacity="1" stroke="none" d="M 2 1 C 1.446 1 1 1.446 1 2 L 1 22 C 1 22.554 1.446 23 2 23 L 22 23 C 22.554 23 23 22.554 23 22 L 23 2 C 23 1.446 22.554 1 22 1 L 2 1 z M 3 2 L 21 2 C 21.554 2 22 2.446 22 3 L 22 21 C 22 21.554 21.554 22 21 22 L 3 22 C 2.446 22 2 21.554 2 21 L 2 3 C 2 2.446 2.446 2 3 2 z" opacity=".07" transform="translate(0,276)"/></g></svg>