<svg xmlns="http://www.w3.org/2000/svg" xmlns:svg="http://www.w3.org/2000/svg" xmlns:xlink="http://www.w3.org/1999/xlink" id="svg4352" width="36" height="18" version="1.1"><defs id="defs4354"><linearGradient id="linearGradient3921-5-9"><stop id="stop3923-6-1" offset="0" stop-color="#bebebe" stop-opacity="1"/><stop id="stop3925-4-6" offset="1" stop-color="#fff" stop-opacity="1"/></linearGradient><clipPath id="clipPath5096" clipPathUnits="userSpaceOnUse"><path id="path5098" d="m 90,52 13,0 0,8 -13,0 0,-8 z"/></clipPath><clipPath id="clipPath5090-6" clipPathUnits="userSpaceOnUse"><path id="path5092-2" d="m 94.83136,54.58381 -2.12784,2.12784 c -0.3817,0.3817 -1.01717,0.38401 -1.40769,-0.0065 -0.39325,-0.39324 -0.39344,-1.02077 -0.0065,-1.40769 l 2.84147,-2.84147 c 0.3817,-0.3817 1.01717,-0.384 1.40769,0.0065 0.02866,0.02866 0.05524,0.05857 0.07973,0.08954 0.03068,0.0242 0.06027,0.05046 0.08859,0.07878 l 5.66341,5.66336 c 0.3816,0.38165 0.3872,1.02044 -0.003,1.41096 -0.3932,0.39325 -1.0222,0.39198 -1.41096,0.0033 l -5.12458,-5.12458 z" clip-rule="evenodd"/></clipPath><clipPath id="clipPath5096-9" clipPathUnits="userSpaceOnUse"><path id="path5098-1" d="m 90,52 13,0 0,8 -13,0 0,-8 z"/></clipPath><linearGradient id="linearGradient3955"><stop id="stop3957" offset="0" stop-color="#fff" stop-opacity="0"/><stop id="stop3959" offset="1" stop-color="#fff" stop-opacity="1"/></linearGradient><linearGradient id="linearGradient3773"><stop id="stop3775" offset="0" stop-color="#7ec83c" stop-opacity="1"/><stop id="stop3777" offset="1" stop-color="#93d15b" stop-opacity="1"/></linearGradient><linearGradient id="linearGradient3948" x1="25" x2="25" y1="23" y2="0" gradientTransform="matrix(0.91304348,0,0,0.91304348,-22.956522,277)" gradientUnits="userSpaceOnUse" xlink:href="#linearGradient3773"/><linearGradient id="linearGradient3950" x1="25" x2="25" y1="23" y2="0" gradientTransform="matrix(-1,0,0,1,24,0)" gradientUnits="userSpaceOnUse" xlink:href="#linearGradient3773"/></defs><metadata id="metadata4357"/><g id="layer1" transform="translate(-1.4773757,-45.294264)"><rect id="rect3003" width="36" height="18" x="1.477" y="-63.294" fill="#f0544c" fill-opacity="1" stroke="none" opacity="1" rx="2" ry="2" transform="scale(1,-1)"/><path id="rect4146" fill="#000" fill-opacity="1" stroke="none" d="m 35.477375,45.294264 c 1.108,0 2,0.892 2,2 l 0,13.999996 c 0,1.108 -0.892,2 -2,2 l -32,4e-6 c -1.108,0 -2,-0.892 -2,-2 l 0,-13.999996 c 0,-1.108 0.892,-2 2,-2 z m 0,1 -32,4e-6 c -0.554,0 -1,0.446 -1,1 l 0,13.999996 c 0,0.554 0.446,1 1,1 l 32,-4e-6 c 0.554,0 1,-0.446 1,-1 l 0,-13.999996 c 0,-0.554 -0.446,-1 -1,-1 z" opacity=".1"/><rect id="rect3003-3" width="18" height="18" x="-37.477" y="45.294" fill="#525252" fill-opacity="1" stroke="none" opacity="1" rx="2" ry="2" transform="scale(-1,1)"/><path id="rect4146-5" fill="#000" fill-opacity="1" stroke="none" d="m 35.477376,45.294264 c 1.108,0 2,0.892 2,2 l -10e-7,13.999996 c 0,1.108 -0.892,2 -2,2 l -14,4e-6 c -1.108,0 -2,-0.892 -2,-2 l 1e-6,-13.999996 c 0,-1.108 0.892,-2 2,-2 z m 0,1 -14,4e-6 c -0.554,0 -1,0.446 -1,1 l -1e-6,13.999996 c 0,0.554 0.446,1 1,1 l 14,-4e-6 c 0.554,0 1,-0.446 1,-1 l 10e-7,-13.999996 c 0,-0.554 -0.446,-1 -1,-1 z" opacity=".3"/><path id="path4248" fill="none" fill-rule="evenodd" stroke="#fff" stroke-dasharray="none" stroke-linecap="round" stroke-linejoin="round" stroke-miterlimit="4" stroke-opacity="1" stroke-width="1.997" d="m 6.485953,54.299109 2.994278,2.9967 5.988556,-5.993401"/></g></svg>