<svg xmlns="http://www.w3.org/2000/svg" xmlns:svg="http://www.w3.org/2000/svg" xmlns:xlink="http://www.w3.org/1999/xlink" id="svg11300" width="16" height="16" display="inline" enable-background="new" version="1.0"><defs id="defs3"><clipPath id="clipPath5096" clipPathUnits="userSpaceOnUse"><path id="path5098" d="m 90,52 13,0 0,8 -13,0 0,-8 z"/></clipPath><clipPath id="clipPath5090-6" clipPathUnits="userSpaceOnUse"><path id="path5092-2" d="m 94.83136,54.58381 -2.12784,2.12784 c -0.3817,0.3817 -1.01717,0.38401 -1.40769,-0.0065 -0.39325,-0.39324 -0.39344,-1.02077 -0.0065,-1.40769 l 2.84147,-2.84147 c 0.3817,-0.3817 1.01717,-0.384 1.40769,0.0065 0.02866,0.02866 0.05524,0.05857 0.07973,0.08954 0.03068,0.0242 0.06027,0.05046 0.08859,0.07878 l 5.66341,5.66336 c 0.3816,0.38165 0.3872,1.02044 -0.003,1.41096 -0.3932,0.39325 -1.0222,0.39198 -1.41096,0.0033 l -5.12458,-5.12458 z" clip-rule="evenodd"/></clipPath><clipPath id="clipPath5096-9" clipPathUnits="userSpaceOnUse"><path id="path5098-1" d="m 90,52 13,0 0,8 -13,0 0,-8 z"/></clipPath><clipPath id="clipPath5096-7" clipPathUnits="userSpaceOnUse"><path id="path5098-9" d="m 90,52 13,0 0,8 -13,0 0,-8 z"/></clipPath><clipPath id="clipPath5090-6-2" clipPathUnits="userSpaceOnUse"><path id="path5092-2-0" d="m 94.83136,54.58381 -2.12784,2.12784 c -0.3817,0.3817 -1.01717,0.38401 -1.40769,-0.0065 -0.39325,-0.39324 -0.39344,-1.02077 -0.0065,-1.40769 l 2.84147,-2.84147 c 0.3817,-0.3817 1.01717,-0.384 1.40769,0.0065 0.02866,0.02866 0.05524,0.05857 0.07973,0.08954 0.03068,0.0242 0.06027,0.05046 0.08859,0.07878 l 5.66341,5.66336 c 0.3816,0.38165 0.3872,1.02044 -0.003,1.41096 -0.3932,0.39325 -1.0222,0.39198 -1.41096,0.0033 l -5.12458,-5.12458 z" clip-rule="evenodd"/></clipPath><clipPath id="clipPath5096-9-2" clipPathUnits="userSpaceOnUse"><path id="path5098-1-3" d="m 90,52 13,0 0,8 -13,0 0,-8 z"/></clipPath><linearGradient id="linearGradient3955"><stop id="stop3957" offset="0" stop-color="#fff" stop-opacity="0"/><stop id="stop3959" offset="1" stop-color="#fff" stop-opacity="1"/></linearGradient><linearGradient id="linearGradient3773"><stop id="stop3775" offset="0" stop-color="#7ec83c" stop-opacity="1"/><stop id="stop3777" offset="1" stop-color="#93d15b" stop-opacity="1"/></linearGradient><linearGradient id="linearGradient3948" x1="25" x2="25" y1="23" y2="0" gradientTransform="matrix(0.91304348,0,0,0.91304348,-22.956522,277)" gradientUnits="userSpaceOnUse" xlink:href="#linearGradient3773"/><linearGradient id="linearGradient3950" x1="25" x2="25" y1="23" y2="0" gradientTransform="matrix(-1,0,0,1,24,0)" gradientUnits="userSpaceOnUse" xlink:href="#linearGradient3773"/></defs><metadata id="metadata4"/><g id="layer1" display="inline" transform="translate(0,-284)"><circle id="path4306" cx="8" cy="292" r="8" fill="#f0544c" fill-opacity="1" stroke="none" opacity="1"/><path id="circle4196" fill="#000" fill-opacity="1" stroke="none" d="M 8 0 A 8 8 0 0 0 0 8 A 8 8 0 0 0 8 16 A 8 8 0 0 0 16 8 A 8 8 0 0 0 8 0 z M 8 1 A 7 7 0 0 1 15 8 A 7 7 0 0 1 8 15 A 7 7 0 0 1 1 8 A 7 7 0 0 1 8 1 z" opacity=".1" transform="translate(0,284)"/><circle id="circle4250" cx="8" cy="292" r="3" fill="#fff" fill-opacity="1" stroke="none" opacity="1"/></g></svg>