<svg xmlns="http://www.w3.org/2000/svg" xmlns:svg="http://www.w3.org/2000/svg" id="svg11300" width="16" height="16" display="inline" enable-background="new" version="1.0"><metadata id="metadata4"/><g id="layer1" display="inline" transform="translate(0,-284)"><rect id="rect3015-6" width="8" height="14" x="4" y="285" fill="#f0544c" fill-opacity="1" stroke="none" rx="2" ry="2"/><path id="rect4136" fill="#000" fill-opacity="1" stroke="none" d="M 6 1 C 4.892 1 4 1.892 4 3 L 4 13 C 4 14.108 4.892 15 6 15 L 10 15 C 11.108 15 12 14.108 12 13 L 12 3 C 12 1.892 11.108 1 10 1 L 6 1 z M 6 2 L 10 2 C 10.554 2 11 2.446 11 3 L 11 13 C 11 13.554 10.554 14 10 14 L 6 14 C 5.446 14 5 13.554 5 13 L 5 3 C 5 2.446 5.446 2 6 2 z" opacity=".1" transform="translate(0,284)"/></g></svg>