<svg xmlns="http://www.w3.org/2000/svg" xmlns:svg="http://www.w3.org/2000/svg" id="svg11300" width="16" height="16" display="inline" enable-background="new" version="1.0"><metadata id="metadata4"/><g id="layer1" display="inline" transform="translate(0,-284)"><path id="path3935" fill="#bababa" fill-opacity="1" d="m 3,295 2,0 0,2 -2,0 z m 8,0 2,0 0,2 -2,0 z m -4,0 2,0 0,2 -2,0 z m -4,-4 2,0 0,2 -2,0 z m 8,0 2,0 0,2 -2,0 z m -4,0 2,0 0,2 -2,0 z m -4,-4 2,0 0,2 -2,0 z m 8,0 2,0 0,2 -2,0 z m -4,0 2,0 0,2 -2,0 z"/></g></svg>