<svg xmlns="http://www.w3.org/2000/svg" xmlns:svg="http://www.w3.org/2000/svg" id="svg11300" width="16" height="16" display="inline" enable-background="new" version="1.0"><metadata id="metadata4"/><g id="layer1" display="inline" transform="translate(0,-284)"><path id="path4665" fill="#bababa" fill-opacity="1" fill-rule="nonzero" stroke="none" stroke-dasharray="none" stroke-dashoffset="0" stroke-linecap="round" stroke-linejoin="round" stroke-miterlimit="4" stroke-opacity="1" stroke-width="2" d="m 8,285 c -3.3137085,0 -6,2.68629 -6,6 0,3.31371 4,8 6,8 2,0 6,-4.68629 6,-8 0,-3.31371 -2.686292,-6 -6,-6 z m 4.894531,5.00391 C 12.962941,290.33157 12.998274,290.66527 13,291 c -0.0017,2.21157 -1.456162,4.15928 -3.576172,4.78906 C 9.145554,295.23371 9.000445,294.62117 9,294 c 0.0014,-2.16708 1.728203,-3.93895 3.894531,-3.99609 z m -9.7949216,0.002 C 5.2674784,290.05986 6.997496,291.83146 7,294 6.9986,294.62215 6.852188,295.2354 6.572266,295.79102 4.4531111,295.15961 3.0003573,293.21122 3,291 c -7.2e-5,-0.33387 0.033298,-0.66692 0.099609,-0.99414 z" clip-rule="nonzero" color="#000" color-interpolation="sRGB" color-interpolation-filters="linearRGB" color-rendering="auto" display="inline" enable-background="new" image-rendering="auto" opacity="1" overflow="visible" shape-rendering="auto" text-rendering="auto" visibility="visible" style="isolation:auto;mix-blend-mode:normal;solid-color:#000;solid-opacity:1"/></g></svg>