<svg xmlns="http://www.w3.org/2000/svg" xmlns:svg="http://www.w3.org/2000/svg" id="svg11300" width="16" height="16" display="inline" enable-background="new" version="1.0"><metadata id="metadata4"/><g id="layer1" display="inline" transform="translate(0,-284)"><path id="path4799" fill="#bababa" fill-opacity="1" fill-rule="nonzero" stroke="none" stroke-dasharray="none" stroke-dashoffset="0" stroke-linecap="round" stroke-linejoin="round" stroke-miterlimit="4" stroke-opacity="1" stroke-width="2" d="m 6,286 0,3 c 0,1.10457 -0.8954305,2 -2,2 -1.1045695,0 -2,-0.89543 -2,-2 5.75e-4,-0.52495 0.2075176,-1.02863 0.5761719,-1.40234 C 0.9368286,288.73165 0.0030299,290.32739 0,292 c 0,1.94491 1.2396864,3.66927 3.1523438,4.76562 C 3.0517659,296.5229 2.9999987,296.26274 3,296 c 0,-1.10457 0.8954305,-2 2,-2 1,0 2,2 3,5 1,-3 2,-5 3,-5 1.104569,0 2,0.89543 2,2 -9.79e-4,0.26366 -0.05408,0.52452 -0.15625,0.76758 C 14.758563,295.67133 16,293.94619 16,292 c -0.0035,-1.6708 -0.935695,-3.26485 -2.572266,-4.39844 0.366277,0.37339 0.57171,0.8754 0.572266,1.39844 0,1.10457 -0.895431,2 -2,2 -1.104569,0 -2,-0.89543 -2,-2 l 0,-3 c 0,0 -1.057191,2 -2,2 -0.942809,0 -2,-2 -2,-2 z" clip-rule="nonzero" color="#000" color-interpolation="sRGB" color-interpolation-filters="linearRGB" color-rendering="auto" display="inline" enable-background="new" image-rendering="auto" opacity="1" overflow="visible" shape-rendering="auto" text-rendering="auto" visibility="visible" style="isolation:auto;mix-blend-mode:normal;solid-color:#000;solid-opacity:1"/></g></svg>