<svg xmlns="http://www.w3.org/2000/svg" xmlns:svg="http://www.w3.org/2000/svg" id="svg11300" width="16" height="16" display="inline" enable-background="new" version="1.0"><metadata id="metadata4"/><g id="layer1" display="inline" transform="translate(0,-284)"><path display="inline" style="line-height:normal;text-indent:0;text-align:start;text-decoration-line:none;text-decoration-style:solid;text-decoration-color:#000;text-transform:none;block-progression:tb;white-space:normal;isolation:auto;mix-blend-mode:normal;solid-color:#000;solid-opacity:1" id="path4353" fill="#bababa" fill-opacity="1" fill-rule="nonzero" stroke="none" stroke-dasharray="none" stroke-dashoffset="0" stroke-linecap="round" stroke-linejoin="miter" stroke-miterlimit="4" stroke-opacity="1" stroke-width="1.6" d="M 8 0 A 2 2 0 0 0 6.1445312 1.2578125 C 3.1853205 2.0748922 1 4.7863959 1 8 C 1 11.85652 4.1434826 15 8 15 C 11.856517 15 15 11.85652 15 8 C 15 4.7863959 12.814679 2.0748922 9.8554688 1.2578125 A 2 2 0 0 0 8 0 z M 9.78125 2.9042969 C 11.891295 3.6379061 13.400391 5.6338853 13.400391 8 C 13.400391 10.99181 10.991813 13.400391 8 13.400391 C 5.0081868 13.400391 2.5996094 10.99181 2.5996094 8 C 2.5996094 5.6347721 4.107995 3.640534 6.2167969 2.90625 A 2 2 0 0 0 8 4 A 2 2 0 0 0 9.78125 2.9042969 z M 8 6 A 2 2 0 0 0 6 8 A 2 2 0 0 0 8 10 A 2 2 0 0 0 10 8 A 2 2 0 0 0 8 6 z" baseline-shift="baseline" clip-rule="nonzero" color="#000" color-interpolation="sRGB" color-interpolation-filters="linearRGB" color-rendering="auto" direction="ltr" enable-background="new" font-family="sans-serif" font-size="medium" font-stretch="normal" font-style="normal" font-variant="normal" font-weight="normal" image-rendering="auto" letter-spacing="normal" opacity="1" overflow="visible" shape-rendering="auto" text-anchor="start" text-decoration="none" text-rendering="auto" transform="translate(0,284)" visibility="visible" word-spacing="normal" writing-mode="lr-tb"/></g></svg>