<svg xmlns="http://www.w3.org/2000/svg" xmlns:svg="http://www.w3.org/2000/svg" id="svg11300" width="16" height="16" display="inline" enable-background="new" version="1.0"><metadata id="metadata4"/><g id="layer1" display="inline" transform="translate(0,-284)"><path display="inline" style="line-height:normal;text-indent:0;text-align:start;text-decoration-line:none;text-decoration-style:solid;text-decoration-color:#000;text-transform:none;block-progression:tb;white-space:normal;isolation:auto;mix-blend-mode:normal;solid-color:#000;solid-opacity:1" id="path4765" fill="#bababa" fill-opacity="1" fill-rule="nonzero" stroke="none" stroke-dasharray="none" stroke-dashoffset="0" stroke-linecap="round" stroke-linejoin="round" stroke-miterlimit="4" stroke-opacity="1" stroke-width="2" d="M 8 2 C 5.8401846 2 3.9853113 3.4490612 2.5742188 4.7695312 C 1.1631262 6.0900013 0.1953125 7.40625 0.1953125 7.40625 C -0.0651224 7.75925 -0.0651224 8.24075 0.1953125 8.59375 C 0.1953125 8.59375 1.163126 9.9099987 2.5742188 11.230469 C 3.9853112 12.550939 5.8401846 14 8 14 C 10.159815 14 12.014689 12.550939 13.425781 11.230469 C 14.836874 9.9099987 15.804688 8.59375 15.804688 8.59375 C 16.065123 8.24075 16.065123 7.75925 15.804688 7.40625 C 15.804688 7.40625 14.836874 6.0900013 13.425781 4.7695312 C 12.014689 3.4490612 10.159815 2 8 2 z M 8 4 A 4 4 0 0 1 12 8 A 4 4 0 0 1 8 12 A 4 4 0 0 1 4 8 A 4 4 0 0 1 8 4 z" baseline-shift="baseline" clip-rule="nonzero" color="#000" color-interpolation="sRGB" color-interpolation-filters="linearRGB" color-rendering="auto" direction="ltr" enable-background="new" font-family="sans-serif" font-size="medium" font-stretch="normal" font-style="normal" font-variant="normal" font-weight="normal" image-rendering="auto" letter-spacing="normal" opacity="1" overflow="visible" shape-rendering="auto" text-anchor="start" text-decoration="none" text-rendering="auto" transform="translate(0,284)" visibility="visible" word-spacing="normal" writing-mode="lr-tb"/><path id="path4135" fill="#bababa" fill-opacity="1" stroke="none" stroke-dasharray="none" stroke-linecap="round" stroke-linejoin="round" stroke-miterlimit="4" stroke-opacity="1" stroke-width="1" d="m 10,292 a 2,2 0 0 1 -2,2 2,2 0 0 1 -2,-2 2,2 0 0 1 2,-2 2,2 0 0 1 2,2 z" opacity="1"/></g></svg>