<svg xmlns="http://www.w3.org/2000/svg" xmlns:svg="http://www.w3.org/2000/svg" id="svg11300" width="16" height="16" display="inline" enable-background="new" version="1.0" viewBox="0 0 16 16"><metadata id="metadata4"/><g id="layer1" display="inline" transform="translate(0,-284)"><path color="#000" style="isolation:auto;mix-blend-mode:normal;solid-color:#000;solid-opacity:1" id="path4346" fill="#bababa" fill-opacity="1" fill-rule="nonzero" stroke="none" stroke-dasharray="none" stroke-dashoffset="0" stroke-linecap="butt" stroke-linejoin="miter" stroke-miterlimit="4" stroke-opacity=".454" stroke-width="2" d="m 8,284 c 0,0 -5,4 -2,11 0,0 -3,-2 -2,-6 -1,1 -2,3 -2,5 0,3.31371 2.6862915,6 6,6 3.313708,0 6,-2.68629 6,-6 0,-5 -5.6892331,-5.32396 -6,-10 z m -1,4 c 2.6245967,1.84595 5,3.79086 5,6 0,2.20914 -1.790861,4 -4,4 -1.6173266,0 -2.6582031,-1.01758 -2.6582031,-1.01758 C 10,296 10,292 7,288 Z" clip-rule="nonzero" color-interpolation="sRGB" color-interpolation-filters="linearRGB" color-rendering="auto" display="inline" enable-background="new" image-rendering="auto" opacity="1" overflow="visible" paint-order="normal" shape-rendering="auto" text-rendering="auto" visibility="visible"/></g></svg>