<svg xmlns="http://www.w3.org/2000/svg" xmlns:svg="http://www.w3.org/2000/svg" id="svg11300" width="16" height="16" display="inline" enable-background="new" version="1.0"><metadata id="metadata4"/><g id="layer1" display="inline" transform="translate(0,-284)"><path color="#000" style="isolation:auto;mix-blend-mode:normal;solid-color:#000;solid-opacity:1" id="path6841" fill="#bababa" fill-opacity="1" fill-rule="nonzero" stroke="none" stroke-dasharray="none" stroke-dashoffset="0" stroke-linecap="butt" stroke-linejoin="miter" stroke-miterlimit="4" stroke-opacity="1" stroke-width="2" d="M 8 0 C 5 5 2 6.68629 2 10 C 2 13.31371 4.686291 16 8 16 C 11.313708 16 14 13.31371 14 10 C 14 6.68629 11 5 8 0 z M 8 6 C 10.209139 6 12 7.79086 12 10 C 12 12.20914 10.209139 14 8 14 C 5.790861 14 4 12.20914 4 10 C 4 7.79086 5.790861 6 8 6 z M 8 9 A 2 2 0 0 0 6 11 A 2 2 0 0 0 8 13 A 2 2 0 0 0 10 11 A 2 2 0 0 0 8 9 z" clip-rule="nonzero" color-interpolation="sRGB" color-interpolation-filters="linearRGB" color-rendering="auto" display="inline" enable-background="new" image-rendering="auto" opacity="1" overflow="visible" shape-rendering="auto" text-rendering="auto" transform="translate(0,284)" visibility="visible"/></g></svg>