<svg xmlns="http://www.w3.org/2000/svg" xmlns:svg="http://www.w3.org/2000/svg" id="svg11300" width="16" height="16" display="inline" enable-background="new" version="1.0"><metadata id="metadata4"/><g id="layer1" display="inline" transform="translate(0,-284)"><path id="path5019" fill="#bababa" fill-opacity="1" fill-rule="evenodd" stroke="none" stroke-dasharray="none" stroke-dashoffset="0" stroke-linecap="butt" stroke-linejoin="round" stroke-miterlimit="4" stroke-opacity="1" stroke-width="2" d="m 7.0292969,284 a 1.0001,1.0001 0 0 0 -0.9492188,0.60547 L 3.3398438,291 0,291 l 0,2 4,0 a 1.0001,1.0001 0 0 0 0.9199219,-0.60742 l 1.59375,-3.7207 1.4960937,10.46874 a 1.0001,1.0001 0 0 0 1.9101563,0.25391 L 12.660156,293 16,293 l 0,-2 -4,0 a 1.0001,1.0001 0 0 0 -0.919922,0.60547 l -1.5937499,3.7207 -1.4960937,-10.46875 A 1.0001,1.0001 0 0 0 7.0292969,284 Z" baseline-shift="baseline" clip-rule="nonzero" color="#000" color-interpolation="sRGB" color-interpolation-filters="linearRGB" color-rendering="auto" direction="ltr" display="inline" enable-background="accumulate" font-family="sans-serif" font-size="medium" font-stretch="normal" font-style="normal" font-variant="normal" font-weight="normal" image-rendering="auto" letter-spacing="normal" opacity="1" overflow="visible" shape-rendering="auto" text-anchor="start" text-decoration="none" text-rendering="auto" visibility="visible" word-spacing="normal" writing-mode="lr-tb" style="line-height:normal;text-indent:0;text-align:start;text-decoration-line:none;text-decoration-style:solid;text-decoration-color:#000;text-transform:none;block-progression:tb;white-space:normal;isolation:auto;mix-blend-mode:normal;solid-color:#000;solid-opacity:1"/></g></svg>