<svg xmlns="http://www.w3.org/2000/svg" xmlns:svg="http://www.w3.org/2000/svg" id="svg11300" width="16" height="16" display="inline" enable-background="new" version="1.0" viewBox="0 0 16 16"><metadata id="metadata4"/><g id="layer1" display="inline" transform="translate(0,-284)"><path clip-rule="nonzero" style="isolation:auto;mix-blend-mode:normal;solid-color:#000;solid-opacity:1" id="circle4146" cx="12" cy="292" r="3" fill="none" fill-opacity="1" fill-rule="nonzero" stroke="#bababa" stroke-dasharray="none" stroke-dashoffset="0" stroke-linecap="butt" stroke-linejoin="round" stroke-miterlimit="4" stroke-opacity="1" stroke-width="2" color="#000" color-interpolation="sRGB" color-interpolation-filters="linearRGB" color-rendering="auto" display="inline" enable-background="new" image-rendering="auto" opacity="1" overflow="visible" paint-order="normal" shape-rendering="auto" text-rendering="auto" visibility="visible"/><path clip-rule="nonzero" style="isolation:auto;mix-blend-mode:normal;solid-color:#000;solid-opacity:1" id="path4164" cx="4" cy="292" r="3" fill="none" fill-opacity="1" fill-rule="nonzero" stroke="#bababa" stroke-dasharray="none" stroke-dashoffset="0" stroke-linecap="butt" stroke-linejoin="round" stroke-miterlimit="4" stroke-opacity="1" stroke-width="2" color="#000" color-interpolation="sRGB" color-interpolation-filters="linearRGB" color-rendering="auto" display="inline" enable-background="new" image-rendering="auto" opacity="1" overflow="visible" paint-order="normal" shape-rendering="auto" text-rendering="auto" visibility="visible"/><path clip-rule="nonzero" style="isolation:auto;mix-blend-mode:normal;solid-color:#000;solid-opacity:1" id="path4166" cx="4" cy="292" r="3" fill="none" fill-opacity="1" fill-rule="nonzero" stroke="#bababa" stroke-dasharray="none" stroke-dashoffset="0" stroke-linecap="butt" stroke-linejoin="round" stroke-miterlimit="4" stroke-opacity="1" stroke-width="2" color="#000" color-interpolation="sRGB" color-interpolation-filters="linearRGB" color-rendering="auto" display="inline" enable-background="new" image-rendering="auto" opacity="1" overflow="visible" paint-order="normal" shape-rendering="auto" text-rendering="auto" visibility="visible"/><path id="circle4150" fill="#bababa" fill-opacity="1" fill-rule="nonzero" stroke="none" stroke-dasharray="none" stroke-dashoffset="0" stroke-linecap="butt" stroke-linejoin="round" stroke-miterlimit="4" stroke-opacity="1" stroke-width="2" d="M 11.521484,288.03711 C 10.669432,287.92493 9.7818454,288.08376 9,288.53516 l 1,1.73242 c 0.788119,-0.45502 1.770564,-0.32514 2.414062,0.31836 0.643496,0.64349 0.773379,1.62595 0.31836,2.41406 -0.455021,0.78812 -1.370969,1.16718 -2.25,0.93164 C 9.6033851,293.6961 8.9999993,292.91005 9,292 c 1.5e-6,-1.80559 -1.2207776,-3.39596 -2.9648438,-3.86328 -1.7440663,-0.46732 -3.597206,0.29959 -4.5,1.86328 -0.90279746,1.56369 -0.64002862,3.55138 0.6367188,4.82812 1.2767431,1.27675 3.2644342,1.53952 4.828125,0.63672 L 6,293.73242 C 5.211881,294.18744 4.2294356,294.05756 3.5859375,293.41406 2.9424421,292.77057 2.8125588,291.78811 3.2675781,291 c 0.4550216,-0.78813 1.3709642,-1.16718 2.25,-0.93164 C 6.3966148,290.3039 7.0000007,291.08995 7,292 c -1.5e-6,1.80559 1.2207775,3.39596 2.9648438,3.86328 1.7440712,0.46732 3.5972052,-0.2996 4.5000002,-1.86328 0.902797,-1.56369 0.640029,-3.55138 -0.636719,-4.82812 -0.638372,-0.63838 -1.454588,-1.02259 -2.306641,-1.13477 z" baseline-shift="baseline" clip-rule="nonzero" color="#000" color-interpolation="sRGB" color-interpolation-filters="linearRGB" color-rendering="auto" direction="ltr" display="inline" enable-background="new" font-family="sans-serif" font-size="medium" font-stretch="normal" font-style="normal" font-variant="normal" font-weight="normal" image-rendering="auto" letter-spacing="normal" opacity="1" overflow="visible" paint-order="normal" shape-rendering="auto" text-anchor="start" text-decoration="none" text-rendering="auto" visibility="visible" word-spacing="normal" writing-mode="lr-tb" style="line-height:normal;text-indent:0;text-align:start;text-decoration-line:none;text-decoration-style:solid;text-decoration-color:#000;text-transform:none;block-progression:tb;white-space:normal;isolation:auto;mix-blend-mode:normal;solid-color:#000;solid-opacity:1"/></g></svg>