<svg xmlns="http://www.w3.org/2000/svg" xmlns:svg="http://www.w3.org/2000/svg" id="svg11300" width="16" height="16" display="inline" enable-background="new" version="1.0" viewBox="0 0 16 16"><metadata id="metadata4"/><g id="layer1" display="inline" transform="translate(0,-284)"><path id="path4192" fill="#bababa" fill-opacity="1" fill-rule="nonzero" stroke="none" stroke-dasharray="none" stroke-dashoffset="0" stroke-linecap="butt" stroke-linejoin="round" stroke-miterlimit="4" stroke-opacity="1" stroke-width="2" d="m 4,288 c -2.1972959,0 -4,1.80271 -4,4 0,2.19729 1.8027041,4 4,4 a 1.0001,1.0001 0 0 0 0.00195,0 c 0.5300725,-6.7e-4 1.2372749,-0.17658 1.9511719,-0.67383 0.5242101,-0.36512 1.2803031,-1.15461 2.046875,-1.94726 0.7665719,0.79265 1.5226649,1.58214 2.046875,1.94726 0.713897,0.49725 1.421099,0.67316 1.951172,0.67383 A 1.0001,1.0001 0 0 0 12,296 c 2.197296,0 4,-1.80271 4,-4 0,-2.19729 -1.802704,-4 -4,-4 a 1.0001,1.0001 0 0 0 -0.002,0 c -0.529941,7.7e-4 -1.237277,0.17661 -1.951172,0.67383 C 9.5226665,289.03893 8.7665783,289.82844 8,290.62109 7.2334217,289.82844 6.4773335,289.03893 5.953125,288.67383 5.2392303,288.17661 4.5318941,288.00077 4.0019531,288 A 1.0001,1.0001 0 0 0 4,288 Z m -0.00195,2 c 0.265266,3.9e-4 0.3358407,-0.0175 0.8125,0.31445 0.3405544,0.23719 1.0592004,0.97918 1.75,1.68555 -0.6908063,0.70639 -1.4094474,1.44835 -1.75,1.68555 C 4.3348866,294.01685 4.2637693,293.99974 4,294 c -1.1164121,0 -2,-0.88359 -2,-2 0,-1.11575 0.8825673,-1.99896 1.9980469,-2 z M 12,290 l 0.002,0 c 1.11548,0.001 1.998047,0.88425 1.998047,2 0,1.11575 -0.882567,1.99896 -1.998047,2 -0.265134,-3.3e-4 -0.335843,0.0176 -0.8125,-0.31445 C 10.848901,293.44835 10.130259,292.70639 9.4394531,292 10.130253,291.29363 10.848899,290.55164 11.189453,290.31445 11.665116,289.98316 11.7361,290.00031 12,290 Z" baseline-shift="baseline" clip-rule="nonzero" color="#000" color-interpolation="sRGB" color-interpolation-filters="linearRGB" color-rendering="auto" direction="ltr" display="inline" enable-background="new" font-family="sans-serif" font-size="medium" font-stretch="normal" font-style="normal" font-variant="normal" font-weight="normal" image-rendering="auto" letter-spacing="normal" opacity="1" overflow="visible" paint-order="normal" shape-rendering="auto" text-anchor="start" text-decoration="none" text-rendering="auto" visibility="visible" word-spacing="normal" writing-mode="lr-tb" style="line-height:normal;text-indent:0;text-align:start;text-decoration-line:none;text-decoration-style:solid;text-decoration-color:#000;text-transform:none;block-progression:tb;white-space:normal;isolation:auto;mix-blend-mode:normal;solid-color:#000;solid-opacity:1"/></g></svg>