<svg xmlns="http://www.w3.org/2000/svg" xmlns:svg="http://www.w3.org/2000/svg" id="svg11300" width="16" height="16" display="inline" enable-background="new" version="1.0"><metadata id="metadata4"/><g id="layer1" display="inline" transform="translate(0,-284)"><path color="#000" style="isolation:auto;mix-blend-mode:normal;solid-color:#000;solid-opacity:1" id="path4240" fill="#bababa" fill-opacity="1" fill-rule="nonzero" stroke="none" stroke-dasharray="none" stroke-dashoffset="0" stroke-linecap="butt" stroke-linejoin="miter" stroke-miterlimit="4" stroke-opacity="1" stroke-width="2" d="M 8 0 C 6.1172149 0.00271273 4.3149021 0.76376759 3 2.1113281 L 3 4 L 2 5 L 2 8 L 3 9 L 3 11.896484 L 6 16 L 10 16 L 13 11.888672 L 13 9 L 14 8 L 14 5 L 13 4 L 13 2.1035156 C 11.683793 0.75882648 9.8816451 0.00065692874 8 0 z M 4 3 L 6 3 L 7 6 L 9 6 L 10 3 L 12 3 L 12 10.707031 L 10 13.707031 L 10 13 L 6 13 L 6 13.707031 L 4 11 L 4 3 z M 5 8 L 5 9 L 7 9 L 7 8 L 5 8 z M 9 8 L 9 9 L 11 9 L 11 8 L 9 8 z" clip-rule="nonzero" color-interpolation="sRGB" color-interpolation-filters="linearRGB" color-rendering="auto" display="inline" enable-background="new" image-rendering="auto" opacity="1" overflow="visible" paint-order="normal" shape-rendering="auto" text-rendering="auto" transform="translate(0,284)" visibility="visible"/></g></svg>