<svg xmlns="http://www.w3.org/2000/svg" xmlns:svg="http://www.w3.org/2000/svg" id="svg11300" width="16" height="16" display="inline" enable-background="new" version="1.0"><metadata id="metadata4"/><g id="layer1" display="inline" transform="translate(0,-284)"><path id="rect4170" fill="#bababa" fill-opacity="1" fill-rule="nonzero" stroke="none" stroke-dasharray="none" stroke-dashoffset="0" stroke-linecap="butt" stroke-linejoin="miter" stroke-miterlimit="4" stroke-opacity="1" stroke-width="2" d="M 12,284 7.4375,289.3125 7.845703,285 3.0058594,291.02148 C 2.3825118,291.8555 2,292.87869 2,294 c 0,2.76142 2.2385763,5 5,5 2.217702,0 4.075918,-1.4542 4.730469,-3.45313 L 14,287.19531 l -3.46875,3.27344 z m -5,7 c 1.656854,0 3,1.34315 3,3 0,1.65685 -1.343146,3 -3,3 -1.6568542,0 -3,-1.34315 -3,-3 0,-1.65685 1.3431458,-3 3,-3 z" clip-rule="nonzero" color="#000" color-interpolation="sRGB" color-interpolation-filters="linearRGB" color-rendering="auto" display="inline" enable-background="new" image-rendering="auto" opacity="1" overflow="visible" shape-rendering="auto" text-rendering="auto" visibility="visible" style="isolation:auto;mix-blend-mode:normal;solid-color:#000;solid-opacity:1"/></g></svg>