<svg xmlns="http://www.w3.org/2000/svg" xmlns:svg="http://www.w3.org/2000/svg" id="svg11300" width="16" height="16" display="inline" enable-background="new" version="1.0"><metadata id="metadata4"/><g id="layer1" display="inline" transform="translate(0,-284)"><path display="inline" style="line-height:normal;text-indent:0;text-align:start;text-decoration-line:none;text-decoration-style:solid;text-decoration-color:#000;text-transform:none;block-progression:tb;white-space:normal;isolation:auto;mix-blend-mode:normal;solid-color:#000;solid-opacity:1" id="path4146" fill="#bababa" fill-opacity="1" fill-rule="nonzero" stroke="none" stroke-dasharray="none" stroke-dashoffset="0" stroke-linecap="round" stroke-linejoin="round" stroke-miterlimit="4" stroke-opacity="1" stroke-width="2" d="M 8,2 C 5.2504212,2 3,4.25042 3,7 3,8.37479 3.4964046,9.9613802 4.3105469,11.337891 4.4447476,11.56479 4.5961565,11.784185 4.7519531,12 L 2,12 2,14 7,14 7,11.507812 C 6.6709981,11.223517 6.3334724,10.827992 6.0332031,10.320312 5.3996302,9.249103 5,7.83435 5,7 5,5.3313 6.3313008,4 8,4 9.6686992,4 11,5.3313 11,7 11,7.83435 10.60037,9.249103 9.9667969,10.320312 9.6665276,10.827992 9.3290019,11.223517 9,11.507812 L 9,14 l 5,0 0,-2 -2.751953,0 c 0.155796,-0.215815 0.307205,-0.43521 0.441406,-0.662109 C 12.503595,9.9613802 13,8.37479 13,7 13,4.25042 10.749579,2 8,2 Z" baseline-shift="baseline" clip-rule="nonzero" color="#000" color-interpolation="sRGB" color-interpolation-filters="linearRGB" color-rendering="auto" direction="ltr" enable-background="new" font-family="sans-serif" font-size="medium" font-stretch="normal" font-style="normal" font-variant="normal" font-weight="normal" image-rendering="auto" letter-spacing="normal" opacity="1" overflow="visible" shape-rendering="auto" text-anchor="start" text-decoration="none" text-rendering="auto" transform="translate(0,284)" visibility="visible" word-spacing="normal" writing-mode="lr-tb"/></g></svg>