<svg xmlns="http://www.w3.org/2000/svg" xmlns:svg="http://www.w3.org/2000/svg" id="svg11300" width="16" height="16" display="inline" enable-background="new" version="1.0"><metadata id="metadata4"/><g id="layer1" display="inline" transform="translate(0,-284)"><path id="rect5372" fill="#bababa" fill-opacity="1" fill-rule="nonzero" stroke="none" stroke-dasharray="none" stroke-dashoffset="0" stroke-linecap="round" stroke-linejoin="round" stroke-miterlimit="4" stroke-opacity="1" stroke-width="2" d="m 8,285 c -3.3139699,0 -6.0003697,2.61207 -6,5.83398 L 2,297.5 c 0,0.82843 0.6715729,1.5 1.5,1.5 0.8284271,0 1.5,-0.67157 1.5,-1.5 0,0 -0.184017,-1.46875 0.75,-1.5 0.934017,-0.0312 0.75,1.5 0.75,1.5 0,0.82843 0.671573,1.5 1.5,1.5 0.828427,0 1.5,-0.67157 1.5,-1.5 0,0 -0.184017,-1.5312 0.75,-1.5 0.934017,0.0312 0.75,1.5 0.75,1.5 0,0.82843 0.671573,1.5 1.5,1.5 0.828427,0 1.5,-0.67157 1.5,-1.5 l 0,-6.66602 C 14.00037,287.61207 11.31397,285 8,285 Z m -0.5,4 A 1.5,1.5 0 0 1 9,290.5 1.5,1.5 0 0 1 7.5,292 1.5,1.5 0 0 1 6,290.5 1.5,1.5 0 0 1 7.5,289 Z m 4,0 a 1.5,1.5 0 0 1 1.5,1.5 1.5,1.5 0 0 1 -1.5,1.5 1.5,1.5 0 0 1 -1.5,-1.5 1.5,1.5 0 0 1 1.5,-1.5 z" clip-rule="nonzero" color="#000" color-interpolation="sRGB" color-interpolation-filters="linearRGB" color-rendering="auto" display="inline" enable-background="new" image-rendering="auto" opacity="1" overflow="visible" shape-rendering="auto" text-rendering="auto" visibility="visible" style="isolation:auto;mix-blend-mode:normal;solid-color:#000;solid-opacity:1"/></g></svg>