<svg xmlns="http://www.w3.org/2000/svg" xmlns:svg="http://www.w3.org/2000/svg" id="svg11300" width="16" height="16" display="inline" enable-background="new" version="1.0"><metadata id="metadata4"/><g id="layer1" display="inline" transform="translate(0,-284)"><path id="path4589" fill="#bababa" fill-opacity="1" fill-rule="nonzero" stroke="none" stroke-dasharray="none" stroke-dashoffset="0" stroke-linecap="round" stroke-linejoin="round" stroke-miterlimit="4" stroke-opacity="1" stroke-width="2" d="m 11.523439,284.94141 a 1.0001,1.0001 0 0 0 -0.888672,0.5 l -1.57422,2.72656 c 0.663349,0.1832 1.261165,0.51765 1.738282,0.98633 l 0.933594,-1.61523 c 1.07165,0.90271 1.754118,2.0854 2,3.46484 l -1.876954,0 c 0.08349,0.32177 0.142579,0.65406 0.142579,1.00195 0,0.34639 -0.05783,0.67754 -0.140625,0.99805 l 3.142578,0 a 1.0001,1.0001 0 0 0 0.999999,-1 c 1.31e-4,-2.85665 -1.526065,-5.49942 -3.999999,-6.92774 a 1.0001,1.0001 0 0 0 -0.476562,-0.13476 z m -7.0781265,0.002 A 1.0001,1.0001 0 0 0 4,285.07622 c -2.4739339,1.42832 -4.0001314815,4.07109 -4,6.92774 a 1.0001,1.0001 0 0 0 1,1 l 3.1425781,0 c -0.082791,-0.32051 -0.140625,-0.65167 -0.140625,-0.99805 0,-0.34789 0.059085,-0.68018 0.1425781,-1.00195 l -1.8769531,0 c 0.2458814,-1.37944 0.9283501,-2.56213 2,-3.46484 l 0.9335938,1.61523 c 0.4768308,-0.4684 1.0754141,-0.80304 1.7382811,-0.98633 L 5.3652344,285.44141 A 1.0001,1.0001 0 0 0 4.4453125,284.94336 Z M 8,290.00591 c -1.104476,0 -2,0.89542 -2,2 0,1.10458 0.895524,2 2,2 1.104476,0 2.000001,-0.8954 2.000001,-2 0,-1.10458 -0.895525,-2 -2.000001,-2 z m -3.0097656,4.60547 -1.7851563,2.58984 a 1.0001,1.0001 0 0 0 0.2558594,1.39058 C 4.8267585,299.53305 6.413106,300.00035 8,300 c 1.586894,3.5e-4 3.173242,-0.46695 4.539063,-1.4082 0.454524,-0.31344 0.569053,-0.93593 0.25586,-1.39063 l -1.785156,-2.58984 c -0.440583,0.50851 -1.000322,0.90153 -1.644533,1.13672 l 1.128908,1.63672 C 9.696176,297.75399 8.847717,297.9374 8,297.9375 7.152283,297.9374 6.303825,297.75399 5.5058594,297.38477 l 1.1289066,-1.63672 c -0.6440277,-0.23521 -1.2040507,-0.62833 -1.6445316,-1.13672 z" baseline-shift="baseline" clip-rule="nonzero" color="#000" color-interpolation="sRGB" color-interpolation-filters="linearRGB" color-rendering="auto" direction="ltr" display="inline" enable-background="new" font-family="sans-serif" font-size="medium" font-stretch="normal" font-style="normal" font-variant="normal" font-weight="normal" image-rendering="auto" letter-spacing="normal" opacity="1" overflow="visible" shape-rendering="auto" text-anchor="start" text-decoration="none" text-rendering="auto" visibility="visible" word-spacing="normal" writing-mode="lr-tb" style="line-height:normal;text-indent:0;text-align:start;text-decoration-line:none;text-decoration-style:solid;text-decoration-color:#000;text-transform:none;block-progression:tb;white-space:normal;isolation:auto;mix-blend-mode:normal;solid-color:#000;solid-opacity:1"/></g></svg>