<svg xmlns="http://www.w3.org/2000/svg" xmlns:svg="http://www.w3.org/2000/svg" id="svg11300" width="16" height="16" display="inline" enable-background="new" version="1.0"><metadata id="metadata4"/><g id="layer1" display="inline" transform="translate(0,-284)"><path style="text-indent:0;text-decoration-line:none;text-decoration-style:solid;text-decoration-color:#000;text-transform:none;block-progression:tb;white-space:normal;isolation:auto;mix-blend-mode:normal;solid-color:#000" id="path4495" fill="#bababa" d="m 4,285.07273 a 8,8 0 0 0 -4,6.92774 l 5,0 c 7.18e-4,-1.11003 0.611178,-2.06764 1.507812,-2.58594 L 4,285.07273 Z m 8,0 -2.507812,4.3418 c 0.896633,0.5183 1.507094,1.47591 1.507812,2.58594 l 5,0 a 8,8 0 0 0 -4,-6.92774 z m -4,4.92969 c -1.104476,0 -2,0.89542 -2,2 0,1.10458 0.895524,2 2,2 1.104476,0 2,-0.8954 2,-2 0,-1.10458 -0.895524,-2 -2,-2 z M 6.505859,294.59031 4,298.9282 a 8,8 0 0 0 8,0 L 9.494141,294.59031 C 9.052781,294.84577 8.546627,295.00242 8,295.00242 c -0.546627,0 -1.052781,-0.15664 -1.494141,-0.41211 z" color="#000" text-decoration="none"/></g></svg>