<svg xmlns="http://www.w3.org/2000/svg" xmlns:svg="http://www.w3.org/2000/svg" id="svg11300" width="16" height="16" display="inline" enable-background="new" version="1.0"><metadata id="metadata4"/><g id="layer1" display="inline" transform="translate(0,-284)"><g id="g4400" transform="translate(-4,4.0000805)"><path id="path4378" fill="#bababa" fill-opacity="1" fill-rule="evenodd" stroke="none" stroke-dasharray="none" stroke-dashoffset="0" stroke-linecap="butt" stroke-linejoin="miter" stroke-miterlimit="4" stroke-opacity="1" stroke-width="1" d="m 17.207031,5.0039062 c -1.698469,0.0414 -4.29473,0.4275525 -6.0625,2.1953126 C 10.894968,7.4487787 10.662315,7.71932 10.441406,8 L 6,8 5,10 8.5546875,11.421875 C 8.2665968,12.189975 8.0774994,12.893366 8,13.416016 l 2.646484,2.648437 C 11.163715,15.987753 11.85087,15.79327 12.599609,15.5 L 14,19 l 2,-1 0,-4.435547 c 0.27986,-0.22365 0.550283,-0.458484 0.800781,-0.708984 1.767771,-1.76776 2.153875,-4.3637803 2.195313,-6.0625002 0.02486,-1.01923 -0.07422,-1.7148438 -0.07422,-1.7148438 0,0 -0.695762,-0.099019 -1.714844,-0.074219 z M 15,7 a 2,2 0 0 1 2,2 2,2 0 0 1 -2,2 2,2 0 0 1 -2,-2 2,2 0 0 1 2,-2 z" clip-rule="nonzero" color="#000" color-interpolation="sRGB" color-interpolation-filters="linearRGB" color-rendering="auto" display="inline" enable-background="accumulate" image-rendering="auto" opacity="1" overflow="visible" shape-rendering="auto" text-rendering="auto" transform="translate(0,276)" visibility="visible" style="isolation:auto;mix-blend-mode:normal;solid-color:#000;solid-opacity:1"/><path id="path4148" fill="#bababa" fill-opacity="1" fill-rule="evenodd" stroke="none" stroke-dasharray="none" stroke-dashoffset="0" stroke-linecap="butt" stroke-linejoin="miter" stroke-miterlimit="4" stroke-opacity="1" stroke-width="1" d="m 7,291 c -2,0 -1.25,2.0625 -2,4 2,-0.71875 4,0 4,-2 0,-1.10457 -0.8954305,-2 -2,-2 z" clip-rule="nonzero" color="#000" color-interpolation="sRGB" color-interpolation-filters="linearRGB" color-rendering="auto" display="inline" enable-background="accumulate" image-rendering="auto" opacity="1" overflow="visible" shape-rendering="auto" text-rendering="auto" visibility="visible" style="isolation:auto;mix-blend-mode:normal;solid-color:#000;solid-opacity:1"/></g></g></svg>