<svg xmlns="http://www.w3.org/2000/svg" xmlns:svg="http://www.w3.org/2000/svg" id="svg11300" width="16" height="16" display="inline" enable-background="new" version="1.0"><metadata id="metadata4"/><g id="layer1" display="inline" transform="translate(0,-284)"><path color="#000" style="isolation:auto;mix-blend-mode:normal;solid-color:#000;solid-opacity:1" id="path4462" fill="#bababa" fill-opacity="1" fill-rule="nonzero" stroke="none" stroke-dasharray="none" stroke-dashoffset="0" stroke-linecap="round" stroke-linejoin="round" stroke-miterlimit="4" stroke-opacity="1" stroke-width="2" d="M 8 1 C 4.686292 1 2 3.68629 2 7 C 2.002715 7.68658 2.1336743 8.36038 2.3632812 9 L 4 9 L 4 12 L 6 12 C 6 11.446 6.223 11 6.5 11 C 6.777 11 7 11.446 7 12 L 8 12 L 9 12 C 9 11.446 9.223 11 9.5 11 C 9.777 11 10 11.446 10 12 L 12 12 L 12 9 L 13.636719 9 C 13.866326 8.3603847 13.997285 7.68658 14 7 C 14 3.68629 11.313708 1 8 1 z M 5.109375 4.8046875 C 5.267366 4.7635175 5.40738 4.81476 5.5 5 C 6 6 7 5.67157 7 6.5 C 7 7.32843 6.328427 8 5.5 8 C 4.671573 8 4 7.32843 4 6.5 C 4 5.87868 4.635401 4.9281975 5.109375 4.8046875 z M 10.890625 4.8046875 C 11.364599 4.9282003 12 5.8786775 12 6.5 C 12 7.32843 11.328427 8 10.5 8 C 9.671573 8 9 7.32843 9 6.5 C 9 5.67157 10 6 10.5 5 C 10.592621 4.8147575 10.732634 4.7635166 10.890625 4.8046875 z M 8 8 C 8.552285 8 9 8.44772 9 9 C 9 9.55228 8.552285 10 8 10 C 7.447715 10 7 9.55228 7 9 C 7 8.44772 7.447715 8 8 8 z M 4.0332031 13 C 4.1958701 14.13172 5.1559674 15 6.3339844 15 L 8 15 L 9.6660156 15 C 10.844033 15 11.80413 14.13172 11.966797 13 L 10 13 C 10 13.554 9.777 14 9.5 14 C 9.223 14 9 13.554 9 13 L 8 13 L 7 13 C 7 13.554 6.777 14 6.5 14 C 6.223 14 6 13.554 6 13 L 4.0332031 13 z" clip-rule="nonzero" color-interpolation="sRGB" color-interpolation-filters="linearRGB" color-rendering="auto" display="inline" enable-background="new" image-rendering="auto" opacity="1" overflow="visible" shape-rendering="auto" text-rendering="auto" transform="translate(0,284)" visibility="visible"/></g></svg>