<svg xmlns="http://www.w3.org/2000/svg" xmlns:svg="http://www.w3.org/2000/svg" id="svg11300" width="16" height="16" display="inline" enable-background="new" version="1.0"><metadata id="metadata4"/><g id="layer1" display="inline" transform="translate(0,-284)"><path color="#000" style="isolation:auto;mix-blend-mode:normal;solid-color:#000;solid-opacity:1" id="path4640" fill="#bababa" fill-opacity="1" fill-rule="nonzero" stroke="none" stroke-dasharray="none" stroke-dashoffset="0" stroke-linecap="round" stroke-linejoin="miter" stroke-miterlimit="4" stroke-opacity="1" stroke-width="2" d="M 11.5,284 C 9.014719,284 7,286.01472 7,288.5 L 4.5,292 c -0.410725,0 -0.79986,0.0829 -1.166016,0.21289 L 0,288.87891 l 0,4.24218 1.212891,1.21289 C 1.082917,294.70014 1,295.08927 1,295.5 c 0,1.933 1.567003,3.5 3.5,3.5 1.932997,0 3.5,-1.567 3.5,-3.5 l 3.5,-2.5 c 2.485281,0 4.5,-2.01472 4.5,-4.5 0,-2.48528 -2.014719,-4.5 -4.5,-4.5 z m 0,1 c 1.927074,0 3.5,1.57293 3.5,3.5 0,1.92707 -1.572926,3.5 -3.5,3.5 C 9.572926,292 8,290.42707 8,288.5 8,286.57293 9.572926,285 11.5,285 Z m 0,1 c -1.386634,0 -2.5,1.11337 -2.5,2.5 0,1.38663 1.113366,2.5 2.5,2.5 1.386634,0 2.5,-1.11337 2.5,-2.5 0,-1.38663 -1.113366,-2.5 -2.5,-2.5 z m -7,7 c 1.37479,0 2.5,1.12521 2.5,2.5 0,1.37479 -1.12521,2.5 -2.5,2.5 -1.37479,0 -2.5,-1.12521 -2.5,-2.5 0,-0.1177 0.01921,-0.23026 0.03516,-0.34375 l 1.404297,1.4043 a 1.50015,1.50015 0 1 0 2.121094,-2.1211 L 4.156254,293.03516 C 4.269741,293.01921 4.382301,293 4.5,293 Z" clip-rule="nonzero" color-interpolation="sRGB" color-interpolation-filters="linearRGB" color-rendering="auto" display="inline" enable-background="new" image-rendering="auto" opacity="1" overflow="visible" paint-order="normal" shape-rendering="auto" text-rendering="auto" visibility="visible"/></g></svg>