<svg xmlns="http://www.w3.org/2000/svg" xmlns:svg="http://www.w3.org/2000/svg" id="svg11300" width="16" height="16" display="inline" enable-background="new" version="1.0"><metadata id="metadata4"/><g id="layer1" display="inline" transform="translate(0,-284)"><path color="#000" style="isolation:auto;mix-blend-mode:normal;solid-color:#000;solid-opacity:1" id="path4436" fill="#bababa" fill-opacity="1" fill-rule="nonzero" stroke="none" stroke-dasharray="none" stroke-dashoffset="0" stroke-linecap="butt" stroke-linejoin="miter" stroke-miterlimit="4" stroke-opacity="1" stroke-width="2" d="M 7.5,285 C 3.9101491,285 1,287.23858 1,290 l 0,4 2,1 0,-2.5 c 0,-1.933 1.5670034,-3.5 3.5,-3.5 0.9144411,10e-4 1.7921405,0.36002 2.4453125,1 L 14,291 l 0,-1 c 0,-2.76142 -2.910149,-5 -6.5,-5 z m -1,6 C 5.6715729,291 5,291.67157 5,292.5 5,293.32843 5.6715729,294 6.5,294 7.3284271,294 8,293.32843 8,292.5 8,291.67157 7.3284271,291 6.5,291 Z m 3.4609375,1 c 0.024961,0.16552 0.038015,0.33261 0.039063,0.5 -0.00155,0.8665 -0.2326642,1.60005 -0.8144546,2.24219 C 8.6321147,295.40389 7.8538131,295.8379 7,295.96094 L 7,297 l 5,3 1,0 1,-1 0,-2 -1,1 -1,0 0,-1 2,-2 0,-2.07031 L 13,292 Z" clip-rule="nonzero" color-interpolation="sRGB" color-interpolation-filters="linearRGB" color-rendering="auto" display="inline" enable-background="new" image-rendering="auto" opacity="1" overflow="visible" paint-order="normal" shape-rendering="auto" text-rendering="auto" visibility="visible"/></g></svg>