<svg xmlns="http://www.w3.org/2000/svg" xmlns:svg="http://www.w3.org/2000/svg" id="svg11300" width="16" height="16" display="inline" enable-background="new" version="1.0"><metadata id="metadata4"/><g id="layer1" display="inline" transform="translate(0,-284)"><path id="path4236" fill="#bababa" fill-opacity="1" stroke="none" d="m 6.3984643,296.07143 c 0.6553125,0.41751 1.4454714,1.73811 0.323041,3.92857 -2.5271553,-0.15726 -3.3173125,-1.47787 -3.3643625,-2.23423 1.0879875,-0.21484 0.6725357,-0.57032 1.257275,-1.28737 0.9359197,-0.13012 1.0472411,0.3948 1.7840465,-0.40697 z m 3.2030714,0 c -0.6553125,0.41751 -1.4454714,1.73811 -0.323041,3.92857 2.5271553,-0.15726 3.3173123,-1.47787 3.3643623,-2.23423 -1.087987,-0.21484 -0.672534,-0.57032 -1.257275,-1.28737 -0.935919,-0.13012 -1.047241,0.3948 -1.7840463,-0.40697 z M 8,284 c -1.676578,0 -3.0351562,1.35858 -3.0351562,3.03516 C 4.9999997,290 2.9999996,292 2.6660156,294.67187 2.4817306,296.14616 3.5566406,297 3.5566406,297 c 0.242738,-0.0848 0.5030118,-0.78554 0.6992188,-1 C 4.0000004,294 5,291.18294 6.5,290.00586 c 0.5,1 1.5,1 1.5,1 0,0 1,0 1.5,-1 C 11,291.18294 12,294 11.744141,296 c 0.196207,0.21446 0.45648,0.91523 0.699218,1 0,0 1.07491,-0.85384 0.890625,-2.32813 C 13,292 11,290 11.035156,287.03516 11.035156,285.35858 9.6765786,284 8,284 Z" display="inline" enable-background="new" opacity="1"/></g></svg>