<svg xmlns="http://www.w3.org/2000/svg" xmlns:svg="http://www.w3.org/2000/svg" id="svg11300" width="16" height="16" display="inline" enable-background="new" version="1.0" viewBox="0 0 16 16"><metadata id="metadata4"/><g id="layer1" display="inline" transform="translate(0,-284)"><path id="path5783" fill="#bababa" fill-opacity="1" fill-rule="nonzero" stroke="none" stroke-dasharray="none" stroke-dashoffset="0" stroke-linecap="butt" stroke-linejoin="miter" stroke-miterlimit="4" stroke-opacity="1" stroke-width="2" d="m 8,284 -0.8867188,1.70312 c -0.9676452,1.8582 -1.9394455,3.24453 -2.7148437,4.50586 C 3.6230393,291.47032 2.9999987,292.65934 3,294.05469 2.9999975,296.78139 5.2578623,299 8,299 c 2.742138,0 5.000003,-2.21861 5,-4.94531 10e-7,-1.39535 -0.623039,-2.58437 -1.398438,-3.84571 -0.775398,-1.26133 -1.747198,-2.64766 -2.7148432,-4.50586 L 8,284 Z m 0,4.10156 c 0.6811075,1.1437 1.4045599,2.35286 1.8984375,3.15625 C 10.62304,292.43652 11.000001,293.27132 11,294.05469 11.000001,295.68541 9.6761423,297 8,297 c -1.6761423,0 -3.0000015,-1.31459 -3,-2.94531 -7e-7,-0.78337 0.3769602,-1.61817 1.1015625,-2.79688 C 6.5954401,290.45442 7.3188925,289.24526 8,288.10156 Z" baseline-shift="baseline" clip-rule="nonzero" color="#000" color-interpolation="sRGB" color-interpolation-filters="linearRGB" color-rendering="auto" direction="ltr" display="inline" enable-background="new" font-family="sans-serif" font-size="medium" font-stretch="normal" font-style="normal" font-variant="normal" font-weight="normal" image-rendering="auto" letter-spacing="normal" opacity="1" overflow="visible" paint-order="normal" shape-rendering="auto" text-anchor="start" text-decoration="none" text-rendering="auto" visibility="visible" word-spacing="normal" writing-mode="lr-tb" style="line-height:normal;text-indent:0;text-align:start;text-decoration-line:none;text-decoration-style:solid;text-decoration-color:#000;text-transform:none;block-progression:tb;white-space:normal;isolation:auto;mix-blend-mode:normal;solid-color:#000;solid-opacity:1"/></g></svg>