<svg xmlns="http://www.w3.org/2000/svg" xmlns:svg="http://www.w3.org/2000/svg" id="svg11300" width="16" height="16" display="inline" enable-background="new" version="1.0"><metadata id="metadata4"/><g id="layer1" display="inline" transform="translate(0,-284)"><path id="path4623" fill="#bababa" fill-opacity="1" stroke="none" stroke-dasharray="none" stroke-linecap="round" stroke-linejoin="round" stroke-miterlimit="4" stroke-opacity="1" stroke-width="1" d="M 8,0 A 8,8 0 0 0 0,8 8,8 0 0 0 8,16 8,8 0 0 0 16,8 8,8 0 0 0 8,0 Z m 0,1 a 7,7 0 0 1 7,7 7,7 0 0 1 -0.1875,1.5820312 C 14.354825,10.982162 13.053021,12 11.5,12 9.5670034,12 8,10.432997 8,8.5 8,8.5 8.0083566,7.8297198 8,7.5 8,5.5670034 6.4329966,4 4.5,4 2.9101327,4 1.5864511,5.0670101 1.1621094,6.5195312 A 7,7 0 0 1 8,1 Z M 4.5,6 C 5.3284271,6 6,6.6715729 6,7.5 6,8.3284271 5.3284271,9 4.5,9 3.6715729,9 3,8.3284271 3,7.5 3,6.6715729 3.6715729,6 4.5,6 Z m 7,1 A 1.5,1.5 0 0 0 10,8.5 1.5,1.5 0 0 0 11.5,10 1.5,1.5 0 0 0 13,8.5 1.5,1.5 0 0 0 11.5,7 Z" opacity="1" transform="translate(0,284)"/></g></svg>