<svg xmlns="http://www.w3.org/2000/svg" xmlns:svg="http://www.w3.org/2000/svg" id="svg11300" width="24" height="24" display="inline" enable-background="new" version="1.0"><metadata id="metadata4"/><g id="layer1" display="inline" transform="translate(0,-276)"><g id="g4244" display="inline" transform="translate(0,276)"><g id="layer1-1" display="inline" transform="translate(0,-276)"><rect id="rect3003" width="24" height="24" x="0" y="276" fill="#444" fill-opacity="1" stroke="none" opacity="1" rx="2" ry="2"/><path id="rect4146-8" fill="#000" fill-opacity="1" stroke="none" d="M 2,0 C 0.892,0 0,0.892 0,2 l 0,20 c 0,1.108 0.892,2 2,2 l 20,0 c 1.108,0 2,-0.892 2,-2 L 24,2 C 24,0.892 23.108,0 22,0 L 2,0 Z m 0,1 20,0 c 0.554,0 1,0.446 1,1 l 0,20 c 0,0.554 -0.446,1 -1,1 L 2,23 C 1.446,23 1,22.554 1,22 L 1,2 C 1,1.446 1.446,1 2,1 Z" opacity=".3" transform="translate(0,276)"/></g></g></g></svg>