<svg xmlns="http://www.w3.org/2000/svg" xmlns:svg="http://www.w3.org/2000/svg" id="svg11300" width="24" height="24" display="inline" enable-background="new" version="1.0"><metadata id="metadata4"/><g id="layer1" display="inline" transform="translate(0,-276)"><path id="rect3010" fill="#000" fill-opacity="1" stroke="none" d="M 5 0 C 2.23 0 0 2.23 0 5 L 0 19 C 0 21.77 2.23 24 5 24 L 19 24 C 21.77 24 24 21.77 24 19 L 24 5 C 24 2.23 21.77 0 19 0 L 5 0 z M 5 1 L 19 1 C 21.216 1 23 2.784 23 5 L 23 19 C 23 21.216 21.216 23 19 23 L 5 23 C 2.784 23 1 21.216 1 19 L 1 5 C 1 2.784 2.784 1 5 1 z" opacity=".01" transform="translate(0,276)"/><path id="rect3008" fill="#000" fill-opacity="1" stroke="none" d="M 5 1 C 2.784 1 1 2.784 1 5 L 1 19 C 1 21.216 2.784 23 5 23 L 19 23 C 21.216 23 23 21.216 23 19 L 23 5 C 23 2.784 21.216 1 19 1 L 5 1 z M 5 2 L 19 2 C 20.662 2 22 3.338 22 5 L 22 19 C 22 20.662 20.662 22 19 22 L 5 22 C 3.338 22 2 20.662 2 19 L 2 5 C 2 3.338 3.338 2 5 2 z" opacity=".04" transform="translate(0,276)"/><path id="rect3006" fill="#000" fill-opacity="1" stroke="none" d="M 5 2 C 3.338 2 2 3.338 2 5 L 2 19 C 2 20.662 3.338 22 5 22 L 19 22 C 20.662 22 22 20.662 22 19 L 22 5 C 22 3.338 20.662 2 19 2 L 5 2 z M 5 3 L 19 3 C 20.108 3 21 3.892 21 5 L 21 19 C 21 20.108 20.108 21 19 21 L 5 21 C 3.892 21 3 20.108 3 19 L 3 5 C 3 3.892 3.892 3 5 3 z" opacity=".1" transform="translate(0,276)"/><path id="rect2994" fill="#000" fill-opacity="1" stroke="none" d="M 5 3 C 3.892 3 3 3.892 3 5 L 3 19 C 3 20.108 3.892 21 5 21 L 19 21 C 20.108 21 21 20.108 21 19 L 21 5 C 21 3.892 20.108 3 19 3 L 5 3 z M 4 4 L 20 4 L 20 20 L 4 20 L 4 4 z" opacity=".25" transform="translate(0,276)"/><path id="rect3119" fill="#000" fill-opacity="1" d="m 4,280 0,16 16,0 0,-16 z m 1,1 14,0 0,14 -14,0 z" opacity=".9"/></g></svg>